<svg id="Layer_1" data-name="Layer 1" xmlns="http://www.w3.org/2000/svg" viewBox="0 0 751.02 751.02"><defs><style>.cls-1{fill:#fff;}.cls-2{fill:none;}</style></defs><path class="cls-1" d="M374.82,540.19a27.1,27.1,0,1,0-27.1-27.1A27.12,27.12,0,0,0,374.82,540.19Z"/><path class="cls-1" d="M347.72,239.09A27.1,27.1,0,1,0,374.82,212,27.13,27.13,0,0,0,347.72,239.09Zm0,0A27.1,27.1,0,1,0,374.82,212,27.13,27.13,0,0,0,347.72,239.09ZM101,376c0,143.44,110.21,261.12,250.57,273q10.71.93,21.66,1h3.54q10.93-.06,21.66-1C538.81,637.12,649,519.44,649,376S538.81,114.88,398.45,103q-10.71-.93-21.66-1h-3.54q-10.94.06-21.66,1C211.23,114.88,101,232.56,101,376ZM373.23,649C299.06,648,239,587.39,239,513c0-75,61-136,136-136q5.94,0,11.77-.5c1.63-.14,3.26-.3,4.87-.5C459.94,367.76,513,309.46,513,239c0-64.79-44.89-119.3-105.2-134.06A273,273,0,0,1,568.06,569a270.93,270.93,0,0,1-160.24,78h0q-4.74.57-9.52,1-10.65.88-21.48,1h-3.58ZM182,569a273,273,0,0,1,160.24-464.1h0q4.74-.57,9.52-1h0c7.09-.59,14.26-.92,21.46-1h3.58C451,104,511,164.61,511,239c0,75-61,136-136,136q-5.94,0-11.77.5h0c-1.63.14-3.25.3-4.86.5C290.1,384.24,237,442.54,237,513c0,64.79,44.89,119.3,105.2,134.06A270.93,270.93,0,0,1,182,569ZM347.72,239.09A27.1,27.1,0,1,0,374.82,212,27.13,27.13,0,0,0,347.72,239.09Z"/><path class="cls-2" d="M100,376a275,275,0,0,0,273.2,275h3.6a275,275,0,0,0,0-550h-3.6A275,275,0,0,0,100,376Zm242.2,271.06A273,273,0,0,1,182,183a270.93,270.93,0,0,1,160.24-78h0q4.74-.57,9.52-1h0c7.09-.59,14.26-.92,21.46-1h3.58c7.2,0,14.37.37,21.46,1h0q4.79.41,9.52,1h0A273,273,0,0,1,568.06,569a270.93,270.93,0,0,1-160.24,78h0q-4.74.57-9.52,1-10.65.88-21.48,1h-3.58q-10.82-.06-21.48-1-4.78-.4-9.52-1Z"/><path d="M102,376a273.08,273.08,0,0,0,240.2,271.06C281.91,632.3,237,577.79,237,513c0-70.46,53.08-128.76,121.36-137,1.61-.2,3.23-.36,4.86-.5h0q5.82-.5,11.77-.5c75,0,136-61,136-136,0-74.39-60-135-134.21-136h-3.58c-7.2,0-14.37.37-21.46,1h0q-4.78.41-9.52,1h0A273.08,273.08,0,0,0,102,376Zm245.7-136.91a27.1,27.1,0,1,1,27.1,27.1A27.13,27.13,0,0,1,347.72,239.09Z"/><path class="cls-1" d="M347.72,513.09a27.1,27.1,0,1,1,27.1,27.1A27.13,27.13,0,0,1,347.72,513.09Z"/><circle cx="374.82" cy="513.1" r="26.1"/><path d="M347.72,513.09A27.1,27.1,0,1,0,374.82,486,27.13,27.13,0,0,0,347.72,513.09Zm2,0a25.1,25.1,0,1,1,25.1,25.1A25.13,25.13,0,0,1,349.72,513.09Z"/></svg>