<svg xmlns="http://www.w3.org/2000/svg" viewBox="0 0 647.05 755.8"><g id="Layer_2" data-name="Layer 2"><g id="Layer_1-2" data-name="Layer 1"><g id="_5B3520" data-name="5B3520"><path d="M128.59,28.83c-.13,8.82,1.06,17.22,1.48,25.66a21.79,21.79,0,0,0,1.51,5.75c.71,2.15,1.89,3.68,4.24,4.11a3.28,3.28,0,0,1,3,3.47,16.7,16.7,0,0,0,3,9.77c3.17,5,4.28,10.64,4.65,16.11.55,8.22,4.61,13.74,10.58,18.58a37,37,0,0,1,11.35,16c6.4,16.64,12.77,33.28,18.58,50.13a95.16,95.16,0,0,0,9.13,19c2.31,3.75,5.72,6.46,9,9.31,4.37,3.82,7.33,9.12,12.4,12.18a37.19,37.19,0,0,1,12.76,12.23c3.11,5.05,6.86,9.63,10.08,14.59,3.93,6.05,8.3,11.89,12.79,17.62,5,6.39,11.82,10.78,17,16.92,1.4,1.67,3,3.2,4.34,4.89a4.18,4.18,0,0,0,3.23,1.64c4.94.29,10.41-5.34,10.17-10.22-.4-8.14-1.6-16.2-2.4-24.3a119.41,119.41,0,0,1-.59-15.36c.19-6.36-2.45-12-4-17.95a47.45,47.45,0,0,1-2-11.65c0-6-2.46-8.07-8.07-6.33a53.81,53.81,0,0,0-15.91,7.68,11,11,0,0,1-7.16,1.73c-4.38-.18-8.76-.51-13.14-.88-5.08-.43-7.34-2.76-8.21-7.78-1.06-6.17-2.13-12.32-2-18.62.05-1.9-.17-3.75,1.42-5.23,1.21-1.15.91-2.72.85-4.16a112.61,112.61,0,0,0-4.47-26.81c-1.92-6.78-1.44-13.68-1.76-20.54-.14-2.81.27-5.64.36-8.45.18-5.23,3.3-8.77,7.58-10.57,3.75-1.59,7.8-1.23,12,.9,6.49,3.31,10.42,8.62,13.18,14.77,1.57,3.5,3.62,7.15,3.65,11.18.1,12.61,7.74,13,17.07,11.27,5.75-1.06,9.49-5.31,14-8.39,5.39-3.69,10.88-7.25,16.29-10.9,3.46-2.34,7.38-2.69,11-4.24a13.26,13.26,0,0,1,12.11.81c2.41,1.43,5.28,1.17,7.76,3a31.14,31.14,0,0,1,10.94,14.81c3.95,11,6.89,22.31,10,33.59,1.54,5.62,3,11.31,4.32,16.95,1.6,7.07,4.11,14,4.17,21.43s2.84,14.68,4.35,22c1.32,6.42,3.9,12.58,4,19.24a16.33,16.33,0,0,0,1.53,7,16.9,16.9,0,0,1,1.31,7.67,24,24,0,0,0,.52,6.86,2.31,2.31,0,0,0,1.88,1.9c.76.06,1.34-.71,1.48-1.44.69-3.81,3.48-6.83,3.85-10.83.29-3,2.12-5.69,3.69-8.15a62.48,62.48,0,0,0,6.8-15.57c1.47-4.73.87-10,1.1-15,.07-1.51-1.06-4,1.12-4.31s1.91,2.26,2.48,3.73c2.94,7.56,7.62,14,12.85,20.11,8.23,9.67,17.19,18.7,24.72,29,4.92,6.72,9.47,13.7,13.69,20.82,3.62,6.12,6.8,12.58,10,19,2.76,5.56,4.82,11.38,7.46,17a45.38,45.38,0,0,1,2.6,8.58c2.28,9.42,5.12,18.72,6.78,28.29,1.28,7.38,4.4,13.89,11.18,17.6,3.37,1.84,6.87,3.67,11,4.12,8.58.95,17,3,25.67,3.58,3,.2,6,1.39,9.12,1.85,6,.89,10.41-1.58,14.66-5.28a41.94,41.94,0,0,0,11.53-16.07,57.92,57.92,0,0,1,6.33-11.14c4.08-5.81,6.05-12.37,7.22-19.17a209.75,209.75,0,0,1,6-24.21c1.28-4.29,2.74-8.53,3.93-12.86,1.54-5.58,3.89-10.95,6-16.36a3.88,3.88,0,0,1,4-2.43,37.83,37.83,0,0,1,13.37,2.78c3.46,1.41,7.08,2.36,10.56,3.8,4,1.65,7.13,4.32,10.21,7,3.92,3.43,3.95,8.08,2.51,12.75a56.21,56.21,0,0,1-2.85,8c-2.75,5.7-3.83,11.87-5.36,17.92-2.53,10-6.61,19.5-10,29.21-2,5.6-3.2,11.42-4.82,17.12a130,130,0,0,0-3.48,19,35.46,35.46,0,0,1-9.2,19.58c-5.15,5.67-8.35,12.58-10.44,20.19a25.21,25.21,0,0,1-11.38,15.34,162.73,162.73,0,0,0-14.24,9.46c-4.57,3.47-9.39,6.56-14.13,9.74a115.26,115.26,0,0,0-12.54,9.8c-4.93,4.39-10.56,7.77-15.71,11.82-3.66,2.88-6.2,6.72-9.42,10-1.11,1.12-.86,3.23.2,4.42,2.8,3.13,4.18,7.2,7,10.26,3.16,3.37,2.83,7.73,3.3,11.84.87,7.75,1.07,15.46-2.39,22.77-3.63,7.67-9,13.76-15.53,19.27-7.63,6.48-16.25,8.59-25.81,8.42-4.29-.07-8.6,0-12.85-.42-3.53-.36-6.65-2.36-9.69-4-7.4-3.91-13.61-9.49-19.6-15.29a4.1,4.1,0,0,0-1.58-1,9,9,0,0,1-6.6-6.79c-.69-2.69-2.38-3.72-4.91-2.54-9.64,4.45-20,5.6-30.35,6.67-3.15.32-5.64,2.29-8.17,3.77-9.56,5.6-18.47,12.14-25.41,20.93a131.65,131.65,0,0,0-8.9,12.84,80.84,80.84,0,0,1-21,22.41c-7.41,5.55-14.69,11.26-22,16.95-5.71,4.46-11.88,8.33-17.63,12.75-6.27,4.81-13,9-19.5,13.36-8.6,5.79-17.78,10.63-27,15.42-33,17.2-68.34,28.57-102.84,42-4.86,1.9-9.76,3.74-14.53,5.86-2.47,1.1-5.06,1.19-7.6,1.72a5,5,0,0,1-3.84-1.06c-2.61-1.76-2.54-4.48.45-5.37,5.87-1.76,7-6.11,6.84-11.21-.21-8.73-2.64-17.08-4.63-25.5A36,36,0,0,0,105.79,676c-4-5.12-6.75-6-12.82-3.44-1.35.57-2.77,1.48-3.84-.32s-1.42-3.53.28-5.15a8,8,0,0,1,3.84-2c4.58-1,9.17-2,13.72-3.16,13.34-3.35,26.7-6.68,40-10.19,19.69-5.2,39.09-11.41,58.28-18.19a76.41,76.41,0,0,0,36.72-27c6.64-8.93,12.74-18.21,19-27.38,4.67-6.83,8.56-14.22,12.51-21.51q8.58-15.79,16.06-32.15c5.14-11.26,9.81-22.72,10.75-35.16a43.69,43.69,0,0,0-7.78-28.46c-5.9-8.66-13.59-15.79-20.23-23.81a196.13,196.13,0,0,1-16.89-23.87,138.36,138.36,0,0,0-17.84-22.85c-8.7-9.28-18.82-17.06-27.55-26.29q-9.47-10-19.32-19.62c-1.44-1.41-1.57-3.21-1.71-4.92-.44-5.39-.67-10.73,2.57-15.64a5,5,0,0,0-.63-6.62c-4.46-4.59-7.24-10.23-10.33-15.77-3.89-7-7.11-14.24-10.34-21.45-4.11-9.16-10.54-16.34-16.59-24-4.49-5.66-8.12-11.63-8.6-19.4a97.67,97.67,0,0,0-2.49-17,80.51,80.51,0,0,0-4.13-12.4c-2-4.74-3.74-9.88-3.72-15.09,0-7.87-2.83-14.93-5.22-22.13a94.14,94.14,0,0,0-8.88-19.91c-.77-1.25-.47-2.65-.65-4-.88-6.31-2-12.61-3.41-18.77a87.94,87.94,0,0,0-3.77-12.82,16.81,16.81,0,0,0-3.9-5.55c-3.29-3.41-3.62-8.3-5.79-12.29s-3-8.2-4.46-12.28a4.74,4.74,0,0,1,.44-4.17c1.27-2.35,1-4.49-.58-6.74-2.83-4.12-4.56-8.9-7.16-13.11-3.66-5.93-4.3-12.83-7.15-18.89a25.54,25.54,0,0,1-2.5-12.36c.33-8,4.91-13.59,10.61-18.37A59.86,59.86,0,0,1,114.23.39c4.67-1.37,8.91.94,9.58,5.73.39,2.82,2.34,4.6,3.36,7C129.43,18.38,128.4,23.8,128.59,28.83ZM479.14,482.65a23.82,23.82,0,0,0-.72-7.66c-3.51-13.32-8.45-26.22-11.5-39.68s-6.5-26.83-5.35-40.83a5.19,5.19,0,0,0-4-5.39c-3.38-1-6.71-2.27-10.1-3.19-8.24-2.23-16.38-4.77-24.46-7.5a17.51,17.51,0,0,1-5.37-3.07c-5.73-4.57-10.73-9.9-16.12-14.82-6.15-5.62-12.12-11.45-20.61-13.53-4.76-1.17-5.11-.94-4.53,3.88a5.85,5.85,0,0,0,.17.93c2.15,7.07,3.45,14.38,5.76,21.42,7,21.23,15.86,41.74,23.57,62.69,1.39,3.77,3.16,7.51,7.08,10,2.66,1.66,5.3,4.15,5.85,7.75s2.79,5.29,6.24,6c7.25,1.54,14.48,3.19,21.67,5,2.9.73,5.38.92,7.86-1.23,2.05-1.78,6.18-1.32,7.37.62a35.74,35.74,0,0,1,3.25,6.41C467.58,477,472.1,481,479.14,482.65Zm-79.77,15a7.72,7.72,0,0,1,.08-1.28c1.07-4.07-1-8.09-.19-12.13a11.86,11.86,0,0,0,0-5.86c-1.62-5.5-.16-10.38,3.11-14.85a6.17,6.17,0,0,0,1-4.18,53.17,53.17,0,0,1,.4-10.32c.25-1.63.53-3.59-.85-4.76-2.35-2-3.82-4.63-5.78-6.89-8.81-10.16-15.52-21.69-21.44-33.64A225.49,225.49,0,0,1,363,370.78c-2.4-7.68-4.19-15.51-6.18-23.29-.66-2.58-1.95-2.85-4.21-2.56-2.86.36-5.1,2.3-8,2.62-12.91,1.43-24.53,6.52-35.67,12.88a26.83,26.83,0,0,0-9.58,8.77c-1.08,1.68-1.32,3.76-2.85,5.18s-1.16,2.73.3,4.21A67.52,67.52,0,0,1,308,393.14c2,3.57,2.7,7.85,6.81,10.08,2.16,1.17,4.29,2.47,6.37,3.82,12.27,8,24.6,15.8,36.68,24,4.82,3.29,9.33,7,12.42,12.07A216.63,216.63,0,0,1,384.13,471c3,7,5.79,14.15,8.87,21.15A8.74,8.74,0,0,0,399.37,497.6Z"/><path d="M19.56,699.49c-4.61-.47-9.72.66-14.78,2-2.06.54-3.9.49-4.56-1.87s.25-4.24,2.81-5.11c10.49-3.58,21.31-4.12,32.23-3.61,3.34.15,6.66.61,10,1,1.46.18,3,.76,3.94-.86A4.46,4.46,0,0,0,49,686,27.24,27.24,0,0,0,34.4,675.73c-4.69-1.27-7.49-4.4-9.6-8.33-1.37-2.56-.29-4.1,2.67-4.5A11.6,11.6,0,0,1,33.89,664c13.12,6,27.17,9.77,39.9,16.63,3.22,1.74,6.8,2.55,9.86,4.63,2.48,1.69,5.39.54,7.95,0,4.09-.8,6.31.53,8.75,3.93,4.72,6.57,6.09,13.85,6.55,21.55.19,3.06-.47,5.22-4.11,6.1-3.34.81-6,3.36-8.61,5.58a48.46,48.46,0,0,1-20.9,10.14c-5.86,1.32-10.15,4.61-13.9,9a135.06,135.06,0,0,1-11,11.61,8.45,8.45,0,0,1-6.17,2.63c-2.45-.1-3.42-1.51-2-3.45,4-5.56,7-11.83,11.48-17.09,2.18-2.58.2-6.74-3.78-6.93-6.07-.29-12.1-1.17-18.26,1-5.12,1.83-10.65,2.73-16,3.94a3.74,3.74,0,0,1-4.84-4.13,3,3,0,0,1,1.78-2.76c5.08-1.82,9.73-4.73,15.09-5.83a12.83,12.83,0,0,0,6.38-3.15c1.68-1.57,1.35-3-.9-3.6a6.58,6.58,0,0,0-4.93.23c-3,1.7-6.22,1.66-9.4,2.1a32.92,32.92,0,0,0-9.7,2.34c-2,.92-4.16.94-5.67-1.08-1.78-2.39-1.06-4.9,1.77-6.11,4.91-2.09,10.18-3,15.29-4.46,3.12-.87,6.29-1.54,9.33-2.66,1.3-.48,2.62-1.23,2.28-2.92-.3-1.54-1.75-1.71-3-1.76C24.85,699.41,22.55,699.49,19.56,699.49Z"/><path d="M605.54,257.68c.56-6.13-3.43-10.7-6.43-15.65a18.63,18.63,0,0,0-1.25-1.8,1.67,1.67,0,0,1-.15-2.29c.61-.68,1.26-1.34,2.42-1,2.64.81,5.15,1.78,6.7,4.29s3.95,4.56,5.13,7.43a2.67,2.67,0,0,0,3.61,1.66c1.29-.59,1-2.09.79-3.35-.3-2.23-1.57-4.07-2.28-6.14-.52-1.5-1.12-3.23.4-4.31s2.76.31,4.11,1.16c3.65,2.32,4.63,5.63,4.45,9.66,0,1.2-.74,3.05,1.18,3.43s2.75-1.1,3.47-2.58a8.83,8.83,0,0,0,.74-4.27c-.07-1.86.51-3.55,2.45-3.85s3.24,1.26,3.73,3.1a12.84,12.84,0,0,1-.21,7.11,17.16,17.16,0,0,0-1.09,3.24c-.11,1.21-1.62,2.79.09,3.62a4.1,4.1,0,0,0,4.68-.77c1.39-1.27,2.83-2.48,4.22-3.75s2.66-1.45,3.91-.22,1,2.66.07,4c-.42.59-.93,1.13-1.38,1.71-3.28,4.28-5.76,8.64-5.72,14.48.06,7.5-4,13.44-9.35,18.45-1.81,1.68-3.09,1-4.77-.46-5.21-4.64-11.72-7.76-18.36-7.82-7.2-.06-11.19-3.91-15.07-8.47-2.9-3.4-5-7.42-7.54-11.16a2.72,2.72,0,0,1,.52-3.92c1.93-1.63,4-.87,5.29.68a10.77,10.77,0,0,0,6.07,3.51,16.92,16.92,0,0,0,3.41.42C605.17,264.11,605.58,263.71,605.54,257.68Z"/></g></g></g></svg>