<svg xmlns="http://www.w3.org/2000/svg" viewBox="0 0 1547.38 560.22"><defs><style>.cls-1{fill:#006837;}</style></defs><g id="Layer_2" data-name="Layer 2"><g id="Layer_1-2" data-name="Layer 1"><path class="cls-1" d="M1267.27,0A279.28,279.28,0,0,0,1066.7,84.59a64.42,64.42,0,0,1-92.44,0,280.08,280.08,0,0,0-401.14,0,64.42,64.42,0,0,1-92.44,0A279.28,279.28,0,0,0,280.11,0C125.41,0,0,125.41,0,280.11S125.41,560.22,280.11,560.22a279.28,279.28,0,0,0,200.57-84.59,64.42,64.42,0,0,1,92.44,0,280.08,280.08,0,0,0,401.14,0,64.42,64.42,0,0,1,92.44,0,279.28,279.28,0,0,0,200.57,84.59c154.7,0,280.11-125.41,280.11-280.11S1422,0,1267.27,0Z"/></g></g></svg>