<svg id="cell" data-name="cell" xmlns="http://www.w3.org/2000/svg" viewBox="0 0 2206.29 1227.07"><defs><style>.cls-1{fill:#e6e6e6;}</style></defs><path class="cls-1" d="M1500.22,249.73a234.45,234.45,0,0,0-168.4,71,54.09,54.09,0,0,1-77.61,0,235.15,235.15,0,0,0-336.79,0,54.1,54.1,0,0,1-77.62,0,234.43,234.43,0,0,0-168.4-71C541.52,249.73,436.23,355,436.23,484.9S541.52,720.08,671.4,720.08a234.47,234.47,0,0,0,168.4-71,54.1,54.1,0,0,1,77.62,0,235.15,235.15,0,0,0,336.79,0,54.09,54.09,0,0,1,77.61,0,234.49,234.49,0,0,0,168.4,71c129.88,0,235.18-105.29,235.18-235.18S1630.1,249.73,1500.22,249.73Z"/></svg>