<svg id="dehner" data-name="dehner" xmlns="http://www.w3.org/2000/svg" viewBox="0 0 2206.29 1227.07"><defs><style>.cls-1{fill:none;stroke:#000;stroke-miterlimit:10;stroke-width:8px;}</style></defs><polygon class="cls-1" points="755.73 565.08 450.05 807.14 450.04 807.14 234.38 791.62 379.84 862.74 69.91 1108.16 192.41 515.73 224.49 360.57 228.82 339.63 228.82 339.62 253 222.7 541.53 419.2 632.31 481.02 755.73 565.08"/><polygon points="616.09 136.83 565.08 330.02 343 93.39 616.09 136.83"/><polygon class="cls-1" points="565.08 330.02 666.08 437.64 632.31 481.02 470.23 689.22 541.53 419.2 565.08 330.02"/><polygon points="879.19 514.43 708.51 383.14 742.39 339.61 872.39 435.7 879.19 514.43"/><polygon class="cls-1" points="872.39 435.7 742.39 339.61 769.51 304.78 772.24 301.28 793.25 274.28 851.94 198.9 861.83 313.4 866.33 365.5 866.41 366.47 872.39 435.7"/><polygon class="cls-1" points="893.49 679.94 666.08 437.64 708.51 383.14 879.19 514.43 879.19 514.44 893.49 679.94"/><polygon class="cls-1" points="657.32 822.06 571.61 956.49 379.84 862.74 450.04 807.14 450.05 807.14 657.32 822.06"/><polygon points="450.04 807.14 379.84 862.74 234.38 791.62 450.04 807.14"/><polygon class="cls-1" points="932.62 1132.99 638.43 989.16 730.21 827.31 907.32 840.06 908.97 859.22 908.97 859.23 797.63 978.43 919.96 986.38 932.62 1132.99"/><polygon points="730.21 827.31 638.43 989.16 603.34 972 687.53 824.24 730.21 827.31"/><polygon class="cls-1" points="687.53 824.24 603.34 972 571.61 956.49 657.32 822.06 687.53 824.24"/><polygon class="cls-1" points="919.96 986.38 797.63 978.43 908.97 859.23 919.96 986.38"/><polygon class="cls-1" points="985.18 777.63 925.64 841.38 907.32 840.06 893.49 679.94 985.18 777.63"/><line class="cls-1" x1="718.49" y1="264.07" x2="920.21" y2="403.71"/><line class="cls-1" x1="904.69" y1="459.57" x2="872.39" y2="435.7"/><line class="cls-1" x1="742.39" y1="339.61" x2="690.57" y2="301.31"/><polyline class="cls-1" points="904.69 534.05 879.19 514.44 879.19 514.43"/><line class="cls-1" x1="708.51" y1="383.14" x2="662.64" y2="347.85"/><line class="cls-1" x1="571.61" y1="956.49" x2="532.3" y2="1018.16"/><line class="cls-1" x1="690.57" y1="769.9" x2="657.32" y2="822.06"/><line class="cls-1" x1="603.34" y1="972" x2="566.43" y2="1036.78"/><line class="cls-1" x1="718.49" y1="769.9" x2="687.53" y2="824.24"/><line class="cls-1" x1="638.43" y1="989.16" x2="611.43" y2="1036.78"/><line class="cls-1" x1="755.73" y1="782.31" x2="730.21" y2="827.31"/><line class="cls-1" x1="57.5" y1="534.05" x2="308.86" y2="499.92"/><line class="cls-1" x1="172.32" y1="333.89" x2="308.86" y2="403.71"/><line class="cls-1" x1="256.11" y1="301.31" x2="183.18" y2="403.71"/><polygon class="cls-1" points="1053.65 850.59 925.64 841.38 985.18 777.63 1053.65 850.59"/><polygon points="1408.84 1018.16 919.96 986.38 797.63 978.43 908.97 859.23 908.97 859.22 925.64 841.38 1053.65 850.59 985.18 777.63 1282.26 459.57 1408.84 1018.16"/></svg>