<svg id="dehner" data-name="dehner" xmlns="http://www.w3.org/2000/svg" viewBox="0 0 2206.29 1227.07"><path d="M63.76,1118.13,250.3,216,762.48,564.84l-311,246.3h-1.69l-195.07-14L387.3,861.94ZM232.82,340l-.08.41L76.06,1098.19,372.38,863.54l-158.3-77.39L448.79,803,749,565.32l-118.92-81-90.78-61.82L255.7,229.38Z"/><polygon points="616.09 136.83 565.08 330.02 343 93.39 616.09 136.83"/><path d="M461.37,707.12,563.06,322,671.34,437.4ZM567.1,338l-88,333.3L660.82,437.88Z"/><polygon points="879.19 514.43 708.51 383.14 742.39 339.61 872.39 435.7 879.19 514.43"/><path d="M877.14,444.18,736.71,340.39l118.34-152ZM748.07,338.83l119.57,88.39L848.83,209.4Z"/><path d="M898.47,691.09,660.82,437.88l47-60.34L883.19,512.46v1.81ZM671.34,437.4,888.51,668.79,875.36,516.53,709.22,388.73Z"/><path d="M573.06,961.65l-200.68-98.1,76.27-60.41h1.69l214,15.4ZM387.3,861.93l182.86,89.4,80.18-125.76-199-14.33Z"/><polygon points="450.04 807.14 379.84 862.74 234.38 791.62 450.04 807.14"/><path d="M937.21,1139.69,632.85,990.89,728,823.14l183,13.18,2,22.9v1.58L911.89,862,806.32,975l117.33,7.62ZM644,987.43l284,138.86L916.27,990.15l-127.33-8.28L904.83,857.8l-1.2-14L732.44,831.48Z"/><polygon points="730.21 827.31 638.43 989.16 603.34 972 687.53 824.24 730.21 827.31"/><path d="M605,977.24l-39.13-19.12,89.4-140.22,38.92,2.81Zm-27.57-22.38,24.33,11.9,79.19-139-21.5-1.55Z"/><path d="M924.35,990.67l-135.41-8.8L912.18,849.93ZM806.32,975l109.25,7.1-9.81-113.56Z"/><path d="M927.26,845.51l-23.63-1.71-15.12-175L990.66,777.62ZM911,836.32l13,.93,55.68-59.61-81.23-86.55Z"/><rect x="815.35" y="211.22" width="8" height="245.34" transform="translate(78.45 817.5) rotate(-55.3)"/><rect x="884.54" y="427.55" width="8" height="40.16" transform="translate(0.46 896.19) rotate(-53.54)"/><rect x="712.48" y="288.24" width="8" height="64.44" transform="translate(32.91 706.16) rotate(-53.53)"/><polygon points="902.25 537.22 875.19 516.41 875.19 514.44 879.19 514.43 881.63 511.27 907.13 530.88 902.25 537.22"/><rect x="681.57" y="336.56" width="8" height="57.87" transform="translate(-22.15 686) rotate(-52.43)"/><rect x="515.39" y="983.32" width="73.13" height="8" transform="matrix(0.54, -0.84, 0.84, 0.54, -577.29, 921.99)"/><rect x="643.02" y="791.98" width="61.86" height="8" transform="matrix(0.54, -0.84, 0.84, 0.54, -359.53, 936.37)"/><rect x="547.61" y="1000.39" width="74.56" height="8" transform="translate(-577.34 1015.3) rotate(-60.32)"/><rect x="671.74" y="793.07" width="62.54" height="8" transform="translate(-337.57 1013.26) rotate(-60.32)"/><rect x="597.56" y="1008.97" width="54.74" height="8" transform="translate(-564.48 1057.02) rotate(-60.45)"/><rect x="717.1" y="800.81" width="51.73" height="8" transform="translate(-323.63 1053.98) rotate(-60.44)"/><rect x="56.34" y="512.98" width="253.67" height="8" transform="translate(-67.88 29.34) rotate(-7.73)"/><rect x="236.59" y="292.12" width="8" height="153.36" transform="translate(-197.31 415.1) rotate(-62.92)"/><rect x="156.78" y="348.51" width="125.72" height="8" transform="translate(-194.91 326.91) rotate(-54.54)"/><path d="M1063.57,855.31,917,844.77l68.17-73ZM934.28,838l109.45,7.88-58.54-62.39Z"/><polygon points="1408.84 1018.16 919.96 986.38 797.63 978.43 908.97 859.23 908.97 859.22 925.64 841.38 1053.65 850.59 985.18 777.63 1282.26 459.57 1408.84 1018.16"/></svg>